<svg xmlns="http://www.w3.org/2000/svg" xmlns:xlink="http://www.w3.org/1999/xlink" version="1.1" id="Layer_1" x="0px" y="0px" viewBox="0 0 254 236" style="enable-background:new 0 0 254 236;" xml:space="preserve">
<style type="text/css">
	.st0{fill:url(#SVGID_1_);}
	.st1{opacity:0.5;fill:url(#SVGID_2_);enable-background:new    ;}
	.st2{clip-path:url(#SVGID_4_);}
	.st3{opacity:0.13;}
	.st4{opacity:0.12;}
	.st5{fill:url(#SVGID_5_);}
	.st6{clip-path:url(#SVGID_7_);}
	.st7{opacity:0.52;fill:url(#SVGID_8_);enable-background:new    ;}
	.st8{fill:url(#SVGID_9_);}
	.st9{opacity:0.51;}
	.st10{fill:url(#SVGID_10_);}
	.st11{fill:#FFFFFF;}
	.st12{fill:url(#SVGID_11_);}
	.st13{fill:#1F1F1F;}
	.st14{fill:#804E08;}
	.st15{opacity:0.25;}
	.st16{opacity:0.42;}
	.st17{opacity:0.19;}
	.st18{opacity:0.59;}
	.st19{opacity:0.6;}
	.st20{opacity:0.49;}
	.st21{opacity:0.78;}
</style>
<g>
	<g id="Layer_2_1_">
		<g id="OBJECTS">
			
				<linearGradient id="SVGID_1_" gradientUnits="userSpaceOnUse" x1="93.2188" y1="77.8016" x2="93.2188" y2="261.1216" gradientTransform="matrix(1 0 0 -1 33.0021 288.9992)">
				<stop offset="2.000000e-02" style="stop-color:#FFFFFF"/>
				<stop offset="0.47" style="stop-color:#E7E7E7"/>
				<stop offset="0.77" style="stop-color:#D3D3CC"/>
				<stop offset="1" style="stop-color:#C8C8BD"/>
			</linearGradient>
			<circle class="st0" cx="126.2" cy="119.5" r="91.7"/>
			
				<radialGradient id="SVGID_2_" cx="93.2188" cy="169.4616" r="88.66" gradientTransform="matrix(1 0 0 -1 33.0021 288.9992)" gradientUnits="userSpaceOnUse">
				<stop offset="0.59" style="stop-color:#604628"/>
				<stop offset="0.63" style="stop-color:#84715A"/>
				<stop offset="0.69" style="stop-color:#A59889"/>
				<stop offset="0.73" style="stop-color:#BFB7AD"/>
				<stop offset="0.78" style="stop-color:#D2CEC8"/>
				<stop offset="0.82" style="stop-color:#DDDBD7"/>
				<stop offset="0.85" style="stop-color:#E1E0DD"/>
				<stop offset="0.99" style="stop-color:#F0F0EE"/>
			</radialGradient>
			<circle class="st1" cx="126.2" cy="119.5" r="88.7"/>
			<g>
				<defs>
					<circle id="SVGID_3_" cx="126.2" cy="119.5" r="91.7"/>
				</defs>
				<clipPath id="SVGID_4_">
					<use xlink:href="#SVGID_3_" style="overflow:visible;"/>
				</clipPath>
				<g class="st2">
					<g class="st3">
						
							<image style="overflow:visible;enable-background:new    ;" width="254" height="223" xlink:href="61FF5272FB1FE590.png" transform="matrix(1 0 0 1 1.5 -23.4916)">
						</image>
					</g>
					<g class="st4">
						
							<image style="overflow:visible;enable-background:new    ;" width="144" height="159" xlink:href="61FF5272FB1FE591.png" transform="matrix(1 0 0 1 16.5 12.5084)">
						</image>
					</g>
				</g>
			</g>
			
				<linearGradient id="SVGID_5_" gradientUnits="userSpaceOnUse" x1="481.0619" y1="684.5016" x2="481.0619" y2="701.3417" gradientTransform="matrix(0.94 0.35 0.52 -1.42 -619.03 961.59)">
				<stop offset="1.000000e-02" style="stop-color:#FFFBFB"/>
				<stop offset="0.2" style="stop-color:#FAF5F5"/>
				<stop offset="0.47" style="stop-color:#ECE6E3"/>
				<stop offset="0.66" style="stop-color:#DED6D1"/>
				<stop offset="0.77" style="stop-color:#DAD2CD"/>
				<stop offset="0.87" style="stop-color:#D0C8C1"/>
				<stop offset="0.97" style="stop-color:#BEB5AC"/>
				<stop offset="1" style="stop-color:#B9B0A6"/>
			</linearGradient>
			<path class="st5" d="M201.9,162.1l-25.3-9.3c-6.6-2.4-10-9.7-7.6-16.3l0,0c2.4-6.6,9.7-10,16.3-7.6l25.3,9.3     c6.6,2.4,10,9.7,7.6,16.3l0,0C215.9,161.1,208.6,164.5,201.9,162.1z"/>
			<g>
				<defs>
					<path id="SVGID_6_" d="M201.9,162.1l-25.3-9.3c-6.6-2.4-10-9.7-7.6-16.3l0,0c2.4-6.6,9.7-10,16.3-7.6l25.3,9.3       c6.6,2.4,10,9.7,7.6,16.3l0,0C215.9,161.1,208.6,164.5,201.9,162.1z"/>
				</defs>
				<clipPath id="SVGID_7_">
					<use xlink:href="#SVGID_6_" style="overflow:visible;"/>
				</clipPath>
				<g class="st6">
					<g>
						
							<image style="overflow:visible;enable-background:new    ;" width="106" height="102" xlink:href="61FF5272FB1FE597.png" transform="matrix(1 0 0 1 131.5 90.5084)">
						</image>
					</g>
				</g>
			</g>
			
				<radialGradient id="SVGID_8_" cx="93.2098" cy="169.457" r="63.514" gradientTransform="matrix(1 0 0 -1 33.0051 289.0078)" gradientUnits="userSpaceOnUse">
				<stop offset="0.43" style="stop-color:#FFFFFF"/>
				<stop offset="0.59" style="stop-color:#FDFEFD"/>
				<stop offset="0.67" style="stop-color:#F8FAF5"/>
				<stop offset="0.74" style="stop-color:#EFF4E7"/>
				<stop offset="0.79" style="stop-color:#E2EBD4"/>
				<stop offset="0.85" style="stop-color:#D1DFBB"/>
				<stop offset="0.89" style="stop-color:#BCD19C"/>
				<stop offset="0.94" style="stop-color:#A3BF77"/>
				<stop offset="0.98" style="stop-color:#87AC4E"/>
				<stop offset="1" style="stop-color:#76A034"/>
			</radialGradient>
			<circle class="st7" cx="126.2" cy="119.6" r="63.5"/>
			
				<linearGradient id="SVGID_9_" gradientUnits="userSpaceOnUse" x1="126.22" y1="53.8716" x2="126.22" y2="183.0516" gradientTransform="matrix(1 0 0 -1 0 238)">
				<stop offset="0" style="stop-color:#FBF9F7"/>
				<stop offset="0.15" style="stop-color:#F5F3EF"/>
				<stop offset="0.39" style="stop-color:#E6E3D8"/>
				<stop offset="0.5" style="stop-color:#DDDACC"/>
				<stop offset="0.58" style="stop-color:#E9E6DD"/>
				<stop offset="0.66" style="stop-color:#F1EEE9"/>
				<stop offset="0.75" style="stop-color:#F4F1ED"/>
				<stop offset="0.84" style="stop-color:#E8E6E0"/>
				<stop offset="1" style="stop-color:#C9CABE"/>
				<stop offset="1" style="stop-color:#C8C9BD"/>
			</linearGradient>
			<circle class="st8" cx="126.2" cy="119.5" r="64.6"/>
			<g class="st9">
				
					<radialGradient id="SVGID_10_" cx="93.195" cy="201.8616" r="51.2822" gradientTransform="matrix(1 0 0 -1 33 289)" gradientUnits="userSpaceOnUse">
					<stop offset="0" style="stop-color:#FFFFFF"/>
					<stop offset="0.14" style="stop-color:#FBFCFB"/>
					<stop offset="0.27" style="stop-color:#F0F2EF"/>
					<stop offset="0.41" style="stop-color:#DDE2DA"/>
					<stop offset="0.55" style="stop-color:#C2CBBE"/>
					<stop offset="0.69" style="stop-color:#A0AE9A"/>
					<stop offset="0.79" style="stop-color:#82957A"/>
					<stop offset="0.84" style="stop-color:#6C7C66"/>
					<stop offset="1" style="stop-color:#262C23"/>
				</radialGradient>
				<path class="st10" d="M61.6,119.5c0,0,0-0.8,0-2.3c0-0.8,0.1-1.7,0.2-2.7c0-0.5,0.1-1.1,0.1-1.7c0.1-0.6,0.2-1.3,0.2-2      c0.4-3.3,1.1-6.6,2-9.8c1.2-4.2,2.9-8.2,4.9-12c2.4-4.5,5.4-8.8,8.8-12.6c3.8-4.3,8.2-8,13-11.2c5.2-3.3,10.7-5.9,16.6-7.7      c3-0.9,6.1-1.6,9.2-2.1c3.2-0.5,6.3-0.7,9.5-0.7c3.2,0,6.3,0.3,9.5,0.7c3.1,0.5,6.2,1.2,9.2,2.1c5.9,1.8,11.4,4.4,16.6,7.7      c2.5,1.6,4.8,3.4,7,5.3c2.1,1.8,4.1,3.8,6,5.9c3.4,3.8,6.4,8.1,8.8,12.6c2,3.8,3.7,7.8,4.9,12c1,3.2,1.6,6.5,2.1,9.8      c0.1,0.7,0.2,1.3,0.2,2c0,0.6,0.1,1.2,0.1,1.7c0.1,1.1,0.1,2,0.1,2.7c0,1.5,0.1,2.3,0.1,2.3s0-0.8-0.1-2.3      c0-0.7-0.1-1.7-0.2-2.7c0-0.5-0.1-1.1-0.1-1.7s-0.2-1.3-0.3-2c-0.4-3.3-1.2-6.6-2.1-9.8c-1.3-4.2-2.9-8.2-5-12      c-2.4-4.5-5.4-8.7-8.8-12.5c-1.9-2.1-3.9-4-6-5.8c-2.2-1.9-4.5-3.7-7-5.2c-5.1-3.3-10.7-5.9-16.5-7.7c-3-0.9-6.1-1.5-9.2-2      c-3.1-0.4-6.3-0.7-9.4-0.7c-3.2,0-6.3,0.2-9.4,0.7c-3.1,0.5-6.2,1.1-9.2,2c-5.8,1.8-11.3,4.4-16.4,7.8c-2.5,1.6-4.8,3.3-7,5.2      c-2.1,1.8-4.1,3.8-6,5.8c-3.4,3.8-6.4,8-8.8,12.5c-2.1,3.8-3.7,7.8-5,12c-1,3.2-1.7,6.4-2.1,9.8c-0.1,0.7-0.2,1.3-0.3,2      c-0.1,0.7-0.1,1.2-0.1,1.7c-0.1,1.1-0.2,2-0.2,2.7C61.7,118.7,61.6,119.5,61.6,119.5z"/>
			</g>
			<circle class="st11" cx="126.2" cy="119.5" r="60.8"/>
			
				<radialGradient id="SVGID_11_" cx="94.1167" cy="163.4659" r="60.0905" gradientTransform="matrix(1.0028 3.666118e-03 2.034582e-03 -0.993 31.5043 281.7217)" gradientUnits="userSpaceOnUse">
				<stop offset="0.78" style="stop-color:#030303"/>
				<stop offset="0.81" style="stop-color:#151515"/>
				<stop offset="0.87" style="stop-color:#434343"/>
				<stop offset="0.95" style="stop-color:#8E8E8E"/>
				<stop offset="1" style="stop-color:#C1C1C1"/>
			</radialGradient>
			<circle class="st12" cx="126.2" cy="119.5" r="60.1"/>
			<circle class="st13" cx="126.2" cy="119.5" r="56.1"/>
			<circle class="st14" cx="127" cy="119.9" r="58.5"/>
			
				<image style="overflow:visible;enable-background:new    ;" width="185" height="185" xlink:href="61FF5272FB1FE592.png" transform="matrix(1 0 0 1 34.5 27.5084)">
			</image>
			<g class="st15">
				
					<image style="overflow:visible;enable-background:new    ;" width="88" height="136" xlink:href="61FF5272FB1FE593.png" transform="matrix(1 0 0 1 38.5 49.5084)">
				</image>
			</g>
			<g class="st16">
				
					<image style="overflow:visible;enable-background:new    ;" width="128" height="167" xlink:href="61FF5272FB1FE59E.png" transform="matrix(1 0 0 1 85.5 41.5084)">
				</image>
			</g>
			<g class="st16">
				
					<image style="overflow:visible;enable-background:new    ;" width="122" height="156" xlink:href="61FF5272FB1FE59F.png" transform="matrix(1 0 0 1 85.5 45.5084)">
				</image>
			</g>
			<g class="st17">
				
					<image style="overflow:visible;enable-background:new    ;" width="95" height="105" xlink:href="61FF5272FB1FE594.png" transform="matrix(1 0 0 1 46.5 92.5084)">
				</image>
			</g>
			
				<image style="overflow:visible;enable-background:new    ;" width="125" height="82" xlink:href="61FF5272FB1FE595.png" transform="matrix(1 0 0 1 63.5 37.5084)">
			</image>
			<g class="st18">
				
					<image style="overflow:visible;enable-background:new    ;" width="95" height="115" xlink:href="29E6EA9E4B9C2E2F.png" transform="matrix(1 0 0 1 70.5 66.5084)">
				</image>
			</g>
			<g class="st19">
				
					<image style="overflow:visible;enable-background:new    ;" width="105" height="127" xlink:href="29E6EA9E4B9C2E2D.png" transform="matrix(1 0 0 1 61.5 59.5084)">
				</image>
			</g>
			<g class="st20">
				
					<image style="overflow:visible;enable-background:new    ;" width="117" height="139" xlink:href="29E6EA9E4B9C2E2B.png" transform="matrix(1 0 0 1 50.5 52.5084)">
				</image>
			</g>
			<g class="st18">
				
					<image style="overflow:visible;enable-background:new    ;" width="94" height="115" xlink:href="29E6EA9E4B9C2E25.png" transform="matrix(1 0 0 1 90.5 66.5084)">
				</image>
			</g>
			<g class="st19">
				
					<image style="overflow:visible;enable-background:new    ;" width="103" height="127" xlink:href="29E6EA9E4B9C2E27.png" transform="matrix(1 0 0 1 90.5 59.5084)">
				</image>
			</g>
			<g class="st20">
				
					<image style="overflow:visible;enable-background:new    ;" width="113" height="139" xlink:href="29E6EA9E4B9C2E3A.png" transform="matrix(1 0 0 1 90.5 52.5084)">
				</image>
			</g>
			<g class="st21">
				
					<image style="overflow:visible;enable-background:new    ;" width="98" height="100" xlink:href="29E6EA9E4B9C2E3B.png" transform="matrix(1 0 0 1 78.5 75.5084)">
				</image>
			</g>
		</g>
	</g>
</g>
</svg>