<svg xmlns="http://www.w3.org/2000/svg" viewBox="0 0 297.34 237.47"><defs><style>.cls-1{fill:#c7a17a;}</style></defs><g id="Layer_2" data-name="Layer 2"><g id="Layer_1-2" data-name="Layer 1"><path class="cls-1" d="M164,.67c-43.1,4.6-80.4,28.8-96.9,62.8-4.4,8.9-6.5,14.5-5.6,14.5.2,0,1.7-3,3.5-6.8,24.9-53.4,91.4-79.9,153.4-61.1a117.7,117.7,0,0,1,47,28.2c13,12.9,21.3,26.7,25.7,43.2,1.8,6.5,2.2,10.7,2.2,22.5,0,12.8-.3,15.5-2.7,23.3-5.2,17.3-13.1,30.1-26.7,43.3-23.1,22.2-52.2,33.5-86.8,33.5-20.5,0-35.4-2.9-52.4-10.1a111.53,111.53,0,0,1-36.2-24.5c-20.6-20.3-29.4-41.3-29.6-70.2,0-16.5-1.9-13.5-2.6,4.4-.5,10-.9,12.3-2.2,12.8-.9.4-7.4,1.1-14.6,1.6-15.3,1-18.8,1.8-25.1,6.2-15.1,10.4-18.8,32.8-8.9,54.4,2.9,6.4,8.4,10.6,17.8,13.4,6,1.9,8.3,2.1,19,1.5,34.4-1.9,34.3-1.9,39.9-.2,7.3,2.1,14.2,7.5,17.3,13.6,4.4,8.7,12.5,15.3,26.8,22,14.7,6.9,22.7,8.5,42.7,8.5,19.6,0,27.2-1.2,45-7.1,16.6-5.6,29.2-12.6,38.1-21.4,8.2-8.1,21.4-27.1,27.8-39.9,3.7-7.4,5.3-11.8,12.6-34.9,13-41.4-.6-82.1-36.6-109.2C231.92,7,195.52-2.73,164,.67ZM57.92,124.27c0,1-.3,1.6-.8,1.3s-1.3.6-2,2c-.8,1.8-.8,2.3,0,1.8s.9.1.5,1.7,0,1.2,1.3-1.1c2.4-4.2,2.7-2.8.6,2.6-1.4,3.5-1.4,3.7,0,2a7.47,7.47,0,0,0,1.5-3c0-.5.3-.7.6-.4s-.2,2.2-1,4.2c-1.8,4.3-1.3,4.7.9.8l1.5-2.7-.6,2.7c-.4,1.7-.1,2.9.9,3.5,1.5.8,6.5,9.8,5,9.1-11-5.5-18.7-5.8-30.5-1.1-11.5,4.5-17.4,8.7-18.9,13.1-1.8,5.4-1.3,10,1.6,14.4,1.4,2.1,2.7,3.8,3,3.8.7,0-.4-4.2-1.5-5.5-.8-.9-.8-1.5,0-2a2.34,2.34,0,0,0,1-1.6c0-.6-.4-.7-1-.4-1.4.9-1.2-.8.3-2.9s4.7-1.2,4.7,1.3c0,1.4.2,1.4,1,.1s1-1.3,1,0,.1,1.3,1,0c.7-1.1,1-1.1,1-.2,0,.7.5,1,1,.7,1.4-.9,1.2.5-.5,3.5-.9,1.5-1.5,1.9-1.5,1s-.6-.6-1.6,1-1.3,1.8-.9.5c.4-1.1.9-2.9,1.2-4,.4-1.6.3-1.7-.6-.5s-1.1,1.3-1.1,0-.1-1.3-1,0-1,1.3-1,0-.3-1.1-1.1.3c-1.3,2.2-.4,5.1,1.3,4.1.8-.5.9-.2.5,1-.4,1-.3,1.5.3,1.1s1-.1,1,.6.7.4,1.6-.7c1.2-1.5,1.5-1.6,1-.2-.6,2,1.9,4.5,2.9,2.8a1.08,1.08,0,0,1,1.5-.5c.9.5,3-2.5,3-4.2a7.91,7.91,0,0,0-1.5-2.9c-1.5-1.9-1.5-1.9-.9.1.4,1.5.4,1.7-.4.6-1.3-1.8-.4-4.3,1.1-3.4a9.77,9.77,0,0,0,4.4.6c1.8,0,3.3.1,3.3.4a42.42,42.42,0,0,1-2,4.3c-2.4,4.7-2.4,4.7-.4,4.7.9,0,2.5-1.9,3.7-4.4,2.2-4.6,3.1-5.2,4.1-2.7.3.8.2,1.2-.4.9-1.1-.7-3.4,4.4-2.5,5.3,1.5,1.5,3.7.7,5-1.8,1.6-3.2,2.1-6.6.6-4.2-.7,1.1-.9,1.1-1.4-.1s0-1.5,1.4-1.2c1,.2,1.9-.1,1.9-.7s.3-.9.6-.5,0,2.4-.9,4.5c-1.4,3.4-1.4,3.9,0,3.9.8,0,2.4-1.9,3.5-4.2,1.8-3.7,2.5-4.2,5.6-4.3a57.34,57.34,0,0,0,9-1.7c5.1-1.5,5.4-1.8,5-4.4s1-1.4,9.3,7.4c18,18.7,37.7,29.6,65,35.7,15,3.3,40.8,3.3,55.8,0,27.7-6.2,46.5-16.3,65-34.8l10.3-10.5-4.2,7.8c-5.1,9.3-9.2,15.2-10.4,15.3-.5,0-.1-1,1-2.3,3.6-4,4.7-6.3,1.3-2.5-6,6.6-16.7,14.1-12.8,9,.7-.9-.9.6-3.6,3.3-3.3,3.3-8.6,6.8-15.7,10.5-5.8,3-10.5,5.6-10.4,5.8.5.5,13.1-5.5,17.5-8.3,7.3-4.5,5.7-1.9-1.8,3.1-8,5.3-8.9,7.1-1.4,2.8l4.8-2.8-4.7,5.3c-2.7,2.9-4.5,5.8-4.1,6.4s0,.8-.9.5-1.5-.1-1.5.7c0,1,.6,1.1,2.4.2,1.3-.6,1.9-1.3,1.3-1.7-1.3-.8,1.6-3.4,9.5-8.8,6.8-4.6,13.6-11.2,11.5-11.2-.9,0-.5-.9,1-2.5,1.3-1.4,2-2.5,1.5-2.5s.2-1.1,1.5-2.5c3.4-3.7,4.5-1.9,1.3,2.3-1.5,2.1-3.1,3.9-3.5,4a.76.76,0,0,0-.3,1.2c.9,1.4-7.3,9.7-14.5,14.6-3.8,2.6-6.8,4.9-6.6,5.2s1.7-.5,3.3-1.5c2.2-1.4,2.5-1.4,1.6-.2-1.9,2.4-21.8,12.4-30.5,15.3-23,7.7-49.3,9.1-69.7,3.6-4.2-1.1-12.7-4.6-18.9-7.6-13.9-6.9-19.8-12.3-26.7-24.8a110.36,110.36,0,0,0-9.5-14.1c-2.5-2.9-5.9-7.1-7.6-9.4l-3.1-4.1-1.7,2.4c-1.8,2.9-2,3.6-.7,3.6.5,0,1.2-1,1.6-2.3.4-1.5.8-1.8,1.2-.8a13.89,13.89,0,0,0,2.4,3.2c1.1,1.1,1.9,2.5,1.8,3.1q0,1.5-.6,0a1,1,0,0,0-1.4-.7c-.5.4-.6-.2-.2-1.1.4-1.1.3-1.5-.4-1.1a1.09,1.09,0,0,1-1.6-.5c-.2-.7-1.2.3-2.2,2.2-1.6,3.1-1.6,3.3-.1,2.1s1.6-1.2.9.5-.5,1.8,1.2.4,1.8-1.3,1.1.5c-.4,1.1-.4,1.6,0,1.2s1.9.3,3.2,1.5l2.5,2.3-1.2-2.3c-.7-1.3-1-2.7-.6-3,.7-.7,3.1,2.2,5.9,6.9l1.7,2.8-4.7-2c-6.7-3-16.8-3.4-31.9-1.4-31.2,4.2-43.3-2-48.2-24.9-2.5-12.2.1-23.4,7.3-31.5,6.2-6.9,10.9-8.9,23.8-10.1,5.9-.6,13-1.8,15.9-2.8l5.2-1.7.6,2.5A28.63,28.63,0,0,1,57.92,124.27Zm.2,24.9a25.71,25.71,0,0,1,7.8,4.4c3.8,3.3,7,8.9,5.7,10.1-.3.3-9.3.7-19.8.7-16.3.1-20.1-.2-24.5-1.7-2.9-1-5.3-2.2-5.3-2.7,0-1.3,5.1-4.7,10.6-7.1C43.22,148.17,51,147,58.12,149.17Zm-38.9,17c-.9.9-1.2.7-1.2-1.2s.3-2.1,1.2-1.2S20.12,165.27,19.22,166.17Zm22.4,7c-1.9,2.7-2.1,1.9-.4-1.8.7-1.4,1.4-2.1,1.6-1.5S42.42,172,41.62,173.17Zm11.5.5c-2.4,4.5-2.7,3.7-.6-1.4.8-2,1.8-3.4,2.1-3S54.22,171.47,53.12,173.67ZM254,192.87c-1.9,1.6-3.7,2.7-4,2.4-.6-.6,5.1-5.3,6.5-5.3C257.12,190,255.92,191.37,254,192.87Zm-2.3,5.1c-1.7,2.5-6.7,6.4-7.3,5.8s7.2-7.8,8.2-7.8C252.92,196,252.52,196.87,251.72,198Z"/><path class="cls-1" d="M34.82,125.57c-5.9,1.4-15.2,5.6-16.3,7.3-.3.6,1.4-.1,3.7-1.3,4.9-2.7,9.8-4.4,17.8-6.2,3-.6,4.4-1.2,3-1.2A44.78,44.78,0,0,0,34.82,125.57Z"/><path class="cls-1" d="M12.82,135.17c-4.5,6-5.8,8.2-5.8,9.8,0,.8,1.2-.5,2.6-3a44.57,44.57,0,0,1,4.6-6.7c1.2-1.3,1.9-2.5,1.6-2.9S14.12,133.37,12.82,135.17Z"/><path class="cls-1" d="M10.72,164c-.8,3.8,1.5,13.4,3.4,14.6.6.4.6-.4-.2-1.7s-1.5-5.6-1.9-9.4C11.52,161.27,11.42,160.87,10.72,164Z"/><path class="cls-1" d="M71.92,170.07c-.7,1.4-1.4,1.8-1.8,1-.4-.6-1.6.8-2.9,3.5-1.2,2.5-1.8,4.3-1.3,4a1.16,1.16,0,0,1,1.6.4c.5.8,1.4.5,2.7-.7,2.1-1.8,2.1-1.8.8.7-1,2.1-1,2.3.1,1.2a6,6,0,0,0,1.6-3.5c.1-1.2.4-3.7.6-5.5C73.72,167.37,73.52,167.17,71.92,170.07Zm.2,3.2c-1,.9-1.1.8-.5-.6.3-1,.9-1.5,1.2-1.2S72.82,172.57,72.12,173.27Zm-2.6.8c-.5,1.6-.4,1.9.5,1.4s1.1-.4.6.4a1.44,1.44,0,0,1-1.8.5c-.8-.5-.9-.1-.4,1.2s.4,1.6-.4.8-.8-1.8.1-3.7C69.62,171.47,70.42,171.07,69.52,174.07Z"/><path class="cls-1" d="M28.12,170.57c0,1.1.3,1.4.6.6a2,2,0,0,0-.1-1.9C28.32,168.87,28,169.47,28.12,170.57Z"/><path class="cls-1" d="M64.62,172.57c-.9,2-1.5,3.9-1.2,4.1s1.2-1.2,2.1-3.2C67.52,168.57,66.92,167.87,64.62,172.57Z"/><path class="cls-1" d="M36.62,174.07c-.9,2.3-1.5,4.3-1.3,4.6s1.2-1.5,2.1-3.8,1.5-4.3,1.3-4.6S37.52,171.77,36.62,174.07Z"/><path class="cls-1" d="M56.12,172.57c-.6,1.5-.9,2.9-.7,3.2s1-.8,1.6-2.3C58.42,169.87,57.72,169.17,56.12,172.57Z"/><path class="cls-1" d="M59,172.37c-1.5,3.9-1.2,4.6.6,1.3.9-1.6,1.3-3.1,1-3.4S59.62,170.87,59,172.37Z"/><path class="cls-1" d="M61.52,173c-1.7,3.3-1.9,4.4-.6,3.6,1-.6,3.3-6.6,2.6-6.6C63.22,170,62.42,171.27,61.52,173Z"/><path class="cls-1" d="M41,181.27c-10.7,1.9-11.9,2.3-8.7,2.8,2.1.3,7.7,0,12.5-.7s11-1.7,13.7-2.1c4.6-.7,4.8-.8,2-1.4C56,178.87,54.62,179,41,181.27Z"/><path class="cls-1" d="M261.42,187.17l-1.9,2.3,2.3-1.9c2.1-1.8,2.7-2.6,1.9-2.6A12.16,12.16,0,0,0,261.42,187.17Z"/><path class="cls-1" d="M96.62,194.57c4.3,7.6,11.2,18,12.9,19.4,3.2,2.7,12.9,8,13.9,7.7.6-.2-.2-1.1-1.9-2-4.1-2.2-2.6-2.1,3.5.3,7.6,3,7.4,2.3-.5-1.4-3.8-1.8-7.9-4.3-9-5.6l-2-2.3,2.5.8c5.3,1.6,5.4,1.5.9-.9-2.6-1.4-4.9-3.2-5.2-4.1-.8-1.8,0-1.9,3.3,0a15.84,15.84,0,0,0,3.4,1.5c.6,0-3-2.4-7.9-5.3a75.52,75.52,0,0,1-12.8-9.1l-3.9-3.8Zm13.4,11.2c0,1.6-1.1,1-6.2-3.7-4.3-3.9-3.3-4.4,1.7-.9C108,203,110,205,110,205.77Zm1.8,3.8c.2.1.4.8.6,1.6a9,9,0,0,0,1.1,2.8c.8,1.3.6,1.3-.8.2-.9-.8-1.5-1.7-1.4-2.1s-1.1-2-2.8-3.5l-3-2.7,3,1.7C110.22,208.57,111.62,209.47,111.82,209.57Z"/><path class="cls-1" d="M99,192.47c0,.8,12.8,9.5,15.5,10.5,1.6.6,2.7.9,2.4.6C115.92,202.57,99,192.07,99,192.47Z"/><path class="cls-1" d="M181.52,229c-3.3.4-5.5.8-5,.9,1.9.5,10,0,13.5-.9s3.4-.8.5-.7C188.92,228.27,184.82,228.57,181.52,229Z"/><path class="cls-1" d="M156,232c2.5.8,15.7,1.3,14.9.6a64.91,64.91,0,0,0-8.9-.9C157.22,231.37,154.62,231.57,156,232Z"/><path class="cls-1" d="M160.52,7.07c-24.7,3.1-47.5,13.6-64.6,29.7C52.12,78,57,142,106.52,177.17c31.1,22.1,73.6,27.5,110.8,14.2,34.5-12.5,59.5-39.3,66.3-71.4,2-9.7,1.8-25.9-.6-35.9-2.2-9.2-8-22.3-13.1-29.7-5.5-8-17.8-20.2-25.7-25.4-4-2.8-8-5-8.7-5s-3.5-1.6-6.1-3.7C215.72,9.87,185.12,4,160.52,7.07Zm18.2,3.5a2,2,0,0,1-1.9.1c-.8-.3-.5-.6.6-.6S179.12,10.27,178.72,10.57Zm28.7,3c2.8.5,3.5.9,2.4,1.5s-3.4.2-6.2-.7c-4.7-1.6-6.3-3-2.3-2.1C202.52,12.57,205.22,13.17,207.42,13.57Zm-57.4.3a18.08,18.08,0,0,1-5,1.4c-3.5.6-3.5.6.5-.8C150.12,13,152.22,12.67,150,13.87Zm48,1.3c1,.6.7.7-1,.2a15.11,15.11,0,0,1-4-1.6c-1-.6-.7-.7,1-.2A15.11,15.11,0,0,1,198,15.17Zm-40.5.7c.3.6-.3.9-1.4.8s-1.7-.5-1.5-.9A1.69,1.69,0,0,1,157.52,15.87Zm4.5.1c-1.8,1.2-3,1.3-3,.2,0-.4,1-.9,2.2-.9C163,15.07,163.22,15.27,162,16Zm17.7,1c-.1,1.1-.5,2-.9,2s-.6-.9-.5-2,.5-2,.9-2S179.82,15.87,179.72,17Zm-26.5,1.6c.9,1.8.9,1.8-.5.1-1.1-1.3-1.6-1.4-1.9-.6s-.6.8-1-.3C148.92,15.47,152,16.17,153.22,18.57Zm31.1-1.9a5.28,5.28,0,0,1-2.5,0c-.7-.3-.2-.5,1.2-.5S184.92,16.37,184.32,16.67Zm5.9,1a21.59,21.59,0,0,0,4,.6c1.4.1,1.5.4.3,2.7a38.76,38.76,0,0,1-2.9,4.5c-1.5,1.8-1.5,1.7-.1-1.7,1.9-4.6,1.9-4.9,0-4.2-.8.4-1.2,1-.9,1.5s0,.9-.6.9-1-.8-.8-1.8-.2-1.6-.9-1.5a1.73,1.73,0,0,1-1.7-1.3c-.3-.8-.2-1.2.4-.9A15.56,15.56,0,0,0,190.22,17.67Zm-46.4,4.8c1.5,1.4,2.2,2.5,1.6,2.5s-2.1-1.1-3.4-2.5-2-2.5-1.6-2.5S142.32,21.07,143.82,22.47ZM178,21a1.1,1.1,0,0,1-1.1,1c-.5,0-.7-.5-.4-1s.8-1,1.1-1S178,20.37,178,21Zm24,.4c2.3.9,2.9,1.6,1.9,2.1-.8.5-1.4.4-1.7-.4s-1.2-.5-3.1,1.1c-2.1,1.8-2.2,1.9-.8.2,2.1-2.5,2.3-4.1.2-2.4-1.4,1.2-2.2,0-.8-1.3C198.52,19.77,198.22,19.77,202,21.37Zm8.7.2a2,2,0,0,1-1.9.1c-.8-.3-.5-.6.6-.6S211.12,21.27,210.72,21.57ZM137,25.07c0,1.3-3.3,2-4.4.9-.8-.8-.5-.9.9-.4,2,.7,2,.7,0-1.5l-2-2.3,2.8,1.3C135.82,23.77,137,24.67,137,25.07Zm106.3,4.8c1.1,1.1-4.8.5-7.2-.8s-2.8-2.3-.6-1.5c3.1,1.2,1.3-.6-2.5-2.6-2.2-1.1-4-2.3-4-2.6C229,21.77,242,28.57,243.32,29.87Zm-34.9-5.4c-.6,1.6-2.4,2.1-2.4.7a2.36,2.36,0,0,1,2.1-2.2C208.62,23,208.72,23.67,208.42,24.47Zm-6.9,1.5a2.34,2.34,0,0,1-1.6,1c-.6,0-.7-.5-.4-1a2,2,0,0,1,1.6-1C201.72,25,201.82,25.37,201.52,26ZM123,27.07c1.3.9,1.3,1-.1.6a3.94,3.94,0,0,0-3,.4c-1.1.7-1.1.9-.1.9.7,0,1,.4.7,1a3.5,3.5,0,0,1-2.6,1c-1.1,0-1.7.4-1.4,1s.3,1-.2,1.1c-3.8.3-10.8,2.7-8.4,2.8,1.1.1,1.1.4.1,1.6-.7.8-.9,1.5-.5,1.5s-.7,1.8-2.4,3.9-3.1,4.3-3.1,4.9-1.4,2.4-3.2,4.1-2.6,3.1-2,3.1a1.16,1.16,0,0,0,1.2-1.2c0-.6.3-.9.6-.6.9,1-1.6,4.8-3.1,4.8-.8,0-1.5.5-1.5,1.1s-.4.8-.9.4-1.9,2.1-3.1,5.2-2.3,6.5-2.7,7.3a5.71,5.71,0,0,0-.4,2.4,5.23,5.23,0,0,1-.5,2.5c-1.6,4-2.4,26.6-1.2,36.1l.7,5.5-1.5-4.5-1.4-4.5.5,4.2c.6,5.2,4.4,15.5,5.4,14.9.4-.3,1.7,1.5,2.9,4,2.5,5.2,17.6,21.2,24.2,25.7,2.5,1.7,4.5,2.9,4.6,2.7.1-.6,11.8,7.7,14.1,9.9,1.3,1.3,1.9,1.3,4.2,0,1.4-.8,2.6-1.9,2.7-2.4a6.79,6.79,0,0,1,.7-2.5c1.4-3.8,1.6-7.2.6-9.3-1.1-1.9-1-2,.2-1s1.5.8,1.6-.7c.2-2.3-2.2-4.4-4.2-3.6-.8.3-1.5.2-1.5-.2a8.83,8.83,0,0,0-1.4-2.8c-1.3-1.7-1.3-1.4-.1,2.1a23.46,23.46,0,0,1,1.4,6c0,1.1-.7.3-1.5-2-.8-2.1-1.9-4.2-2.6-4.6a1.93,1.93,0,0,1-.5-2.2c.4-1.1-.5-2.3-2.8-3.7a28.26,28.26,0,0,1-5.8-5c-1.4-1.6-2.7-2.7-3-2.4s-1.4-.7-2.5-2.1-2.2-2-2.4-1.4-1.7,0-3.6-1.6c-1.7-1.4-3.6-2.4-4.2-2s-1.2-.6-1.6-2.1c-.5-1.9-.9-2.2-1.5-1.2s-.9.8-.9-.6c0-1.1-1.5-6.7-3.4-12.6-3.4-10.3-3.5-10.9-3-23.5.5-14.3,2.2-21.5,6.1-25.5,1.3-1.4,6.2-6.8,10.8-12,5.4-6.1,11-11.1,15.5-14,7.1-4.6,9.6-7.4,3.9-4.5-3.9,2.1-6.2,1.4-2.8-.8,1.4-.9,6.1-2.2,10.4-2.9,5.7-.9,7.2-1.4,5.5-1.8-2.4-.6-2.4-.7.6-1.1a13.55,13.55,0,0,1,5,.1c1.3.5-.6,2-7.9,5.9a107.19,107.19,0,0,0-13.6,8.4c-2.2,1.8-5.5,4.1-7.3,5.3s-3.2,2.5-3.1,3.1-2.3,4-5.3,7.7-5.7,7.6-5.9,8.8a9.33,9.33,0,0,1-1.3,3.2c-2,2.5-4.3,10.2-5.1,16.7-.9,7.1-.4,15.2.9,14.4.4-.2,1.3,1.4,1.9,3.7,1.2,4,5.9,12.3,6.6,11.6.2-.1-.6-4.1-1.7-8.8-2.1-9.2-3.8-26.9-2.5-27.7a.91.91,0,0,0,.2-1.3c-.2-.4.4-3.3,1.5-6.5s1.8-6.1,1.5-6.5.2-1.3,1-2,1.6-1,1.6-.6c.5,2.3.4,3.2-.2,4.2-.5.5-1.1,4.6-1.4,9s-.7,9.2-.9,10.9c-.6,3.8.2,6.7,1.6,5.9.8-.5.9-.1.4,1.2a25.49,25.49,0,0,0-1.3,3.9c-.4,1.7-.3,1.8.7.5s1.1-1.1.7.8c-.3,1.2-.1,2,.4,1.7s1.1,1.7,1.5,4.5,1,5,1.5,5,.9.9.9,2.1.4,1.8.9,1.4,1.5.3,2,1.4c1.3,2.3,7.1,8.3,7.1,7.3,0-.4.8.8,1.7,2.6s1.8,3.1,2,2.8c1-.9-.9-4.7-3.8-7.5-1.6-1.6-2.9-3.5-2.9-4.1s-.4-.9-.9-.6-1.2-.8-1.6-2.5c-.5-2.3-1-2.8-1.6-1.8-.9,1.5-1.2,1-2.4-4.6a8.7,8.7,0,0,0-1.6-3.6c-.5-.3-1.1-1.9-1.2-3.6s-.5-2.9-.9-2.7-.5-2.2-.4-5.3-.1-6.3-.6-7a1.18,1.18,0,0,1,.3-1.9c.8-.4.9-.3.5.4s-.3,1.2.2,1.2,1.3,1.2,1.7,2.7a10.76,10.76,0,0,0,2,4.3,24.18,24.18,0,0,1,3,5.3c.8,2,2,3.7,2.5,3.7s1,.7,1,1.6.5,1.2,1,.9,1-.2,1,.4,2.5,3.5,5.5,6.6c4.9,4.9,7,6.1,9.9,5.6.5-.1,1.5.7,2.3,1.9a4.5,4.5,0,0,0,2.8,2c.7,0,1.8,1.2,2.3,2.7s1.1,2.2,1.1,1.5,2.2.7,4.8,3.2,5.2,4.5,5.9,4.2a2.38,2.38,0,0,1,2.2.6c.6.6.8.1.5-1.6-.3-1.4-.8-2.4-1.2-2.3s-2.4-1.7-4.5-4.1-4.4-4.1-5-4c-1.8.3-5.6-1.2-5.6-2.3,0-.5,1.2-.2,2.8.7l2.7,1.6-2.4-2.1c-1.2-1.1-2.7-1.8-3.2-1.5s-1.5-.1-2.3-.8-2.3-2.1-3.4-3c-2-1.6-2.1-1.6-2.5.5-.4,1.9-.4,1.9-.6-.4a7.38,7.38,0,0,0-2-4.5c-5-5.4-11.2-15.1-13.7-21.4-1.6-4.2-3-6.6-3.5-5.9-.7,1.3-.3-9.4.7-14.6.3-1.7.6-3.9.7-4.9s2.6-4.4,5.5-7.4c3.8-3.8,5.1-5.7,4.2-6.2-.7-.4,1.1-.8,4-.8s4.9.3,4.4.7c-2,1.4-1.2,2.8,1.4,2.4l2.7-.4-2.5,1.5c-1.4.8-2.6,1.9-2.6,2.5-.4,3.1-.6,3.4-1.3,1.7-.6-1.5-1.2-.2-2.4,5a68.63,68.63,0,0,0-1.7,8.9c0,4.7,4,14.8,7.5,18.8,5.2,6,5.5,6.5,5.6,7.9,0,.8.2.9.5.2s2.6,1,5.2,3.5,5.6,5.3,6.6,6.1c1.8,1.3,1.9,1.3,1.2,0-.5-.8,2.6,2,6.7,6.2,7.1,7.3,9.7,9.1,9.7,6.8,0-.5-.7-.7-1.5-.4-1.1.5-1.3.2-.9-1,.3-.8,1-1.4,1.6-1.3s2.2-2.1,3.7-4.8a88,88,0,0,1,5.9-9.4c3.3-4.5,4.1-6.8,2-5.5-.7.4-.8.3-.4-.4a1.76,1.76,0,0,1,1.9-.7c.7.3,2.4-.3,3.8-1.3,4.4-2.9,12.7-11,13.4-13.1a3.78,3.78,0,0,1,2-2.4c.9-.4,1.2-1.6.8-3.7-.3-1.9-.1-3,.5-2.6,1.7,1,2.1-5.8.4-7.7-.8-.9-1.3-2-.9-2.3.8-.9,5.4,6.4,7.2,11.5,2.4,6.9,1.8,27-.8,25.4-.5-.3-.8,0-.5.8a2.92,2.92,0,0,1-.4,2.4,64.35,64.35,0,0,0-4.1,7.5c-1.7,3.6-3.6,6.4-4.2,6.3-1.4-.2-3.4,3.7-3.5,6.7,0,2-.2,2.2-1,1s-1-1.3-1,0-.1,1.3-1,0c-.7-1.1-1-.5-1,2.3v3.8l2.4-1.8a35,35,0,0,0,5.1-5.5c1.6-2.1,3.5-3.8,4.2-3.8s1.3-.4,1.3-.8.9-1.7,1.9-2.9c2.7-2.8,6-9.7,5.9-11.9-.3-3.1,1.2-7.5,2.2-6.9,1.3.8,1.3-1.7-.1-5.2-1.1-2.6-1.2-2.7-2-.8-.8,1.7-.8,1.6-.3-.5a18,18,0,0,0,.5-4.4c0-1.7.2-1.6,2.6.5s2.5,2.2,1.9.4a19.83,19.83,0,0,1-1-4.5c-.4-4-1-5.4-2.6-6.8-.8-.8-1-1.1-.4-.8,1.8.9,2.4-2,.9-4.1a13.79,13.79,0,0,1-1.9-4.8,16.19,16.19,0,0,0-2.1-5.1c-.8-1.3-1.1-2.4-.5-2.4s1,.3,1,.7,1.3.8,3,.9,2.7-.2,2.5-.6.3-1.1,1.3-1.5c1.4-.6,1.2-.9-1.3-2.1-1.6-.7-2.3-1.3-1.5-1.3s3.5,1.1,6,2.3c4,2.1,4.2,2.4,1.8,2.3-1.6-.1-2.8-.6-2.8-1s-.5-.5-1.1-.1c-.8.4-.7.9.2,1.5.7.4,1.6.6,1.9.4,1-.6,10,13.5,10.1,15.9a18.84,18.84,0,0,0,.4,3.6c.2.8.8,4.5,1.4,8.2,1.3,7.6,2.6,11.8,3.9,11.8,1.5,0,.7-6.8-1.1-8.8a7.7,7.7,0,0,1-1.6-4.8c0-2.5.2-2.6.8-.9a5.19,5.19,0,0,1,.4,3.1c-.2.5.5,1.9,1.7,2.9,2,1.8,2,1.8,2-.6,0-3.7-2.6-12.5-4.4-15a8.85,8.85,0,0,1-1.6-3.8c0-.8-1.2-3-2.7-5-1.8-2.4-2.1-3.1-.8-2.1,1.9,1.4,1.9,1.4-.1-1.7-3.4-5.5-17.6-16.8-23.9-19.1-1.6-.6-2.3-1.1-1.5-1.2s.4-.6-1-1c-2-.7-1.6-.8,2.2-.9,4.8-.1,15.2,3.1,16.4,5.1.5.7,0,.9-1.4.6a5,5,0,0,0-2.2-.4c0,.9,14.2,11.6,14.9,11.2.4-.3,1.7.4,2.7,1.7l1.9,2.2-2.5-2c-1.3-1.1-2-1.3-1.3-.5a88.57,88.57,0,0,1,4.8,9.8c4.7,10.8,6.6,20.5,5.4,28.6-.4,3.3-1,8.2-1.3,10.8-.4,4.7-4.2,13.9-7.8,19-1.5,2.2-1.6,2.7-.4,2.2,2.4-.9,1.9.8-1.5,5.4-3.8,5.1-4.9,5.5-1.9.6,3.6-5.7,1.7-4.9-4.7,2-3.4,3.5-7.6,7.2-9.4,8.2a45.47,45.47,0,0,0-7.3,5,29.45,29.45,0,0,1-8.4,4.8c-5.1,1.8-7.4,2-5.2.6,1.1-.7.7-1-2-1.1-5.8-.2-7.5-.6-9.7-1.8a19,19,0,0,0-6.7-1.1c-2.5,0-4.6-.4-4.6-.8,0-1.5-7-1.3-10,.3-1.6.9-3,1.8-3,2.1s.6.2,1.3-.1-.1.5-1.8,1.9c-3.3,2.9-4.2,3-8.1,1.6-2.9-1.2-6.4-.5-6.4,1.2a5.94,5.94,0,0,1-1.5,2.8c-2.4,2.7-3.6,12-2,14.7,1.6,2.4,6.2,4.2,12,4.6a10.61,10.61,0,0,1,10,8.3c.6,3.6,1.9,4.3,3.2,1.9.6-.9.8-.1.8,2.5v4h-4c-10,0-14.2-1.1-16.6-4.4l-2.3-3.1,2.7,2.2c3.8,3,8.2,1.6,8.5-2.7.2-3.2-.8-4.3-3.3-3.4-1.4.6-1.4.8.2,2.8,1.2,1.4,1.3,1.7.2.9a4.69,4.69,0,0,0-3.7-.8c-1.2.2-2.5-.1-2.8-.7-.5-.7-.2-.8.6-.3s1.1.4.6-.3c-.3-.6-2.7-1.4-5.1-1.8s-4.3-.9-4.1-1.3-3.8-2.1-9.1-3.9c-9.5-3.1-11.9-3.2-4-.1,4.5,1.8,6.3,4.1,2.5,3.2a8.78,8.78,0,0,1-3.5-1.6c-.7-.5-1.3-.6-1.3-.1s-1.1-.3-2.5-1.6-2.5-1.9-2.5-1.4-1.2-.5-2.6-2.1-2.3-2.3-1.8-1.5-.6.1-2.2-1.5a87.64,87.64,0,0,0-9.5-7.5A59.06,59.06,0,0,1,97,151.27c-3.6-4.6-7.5-9.5-8.7-11a30.32,30.32,0,0,1-3.9-6.7A26.83,26.83,0,0,0,82,129c-.6-.6-3.1-9.3-3.8-13.5a10.75,10.75,0,0,0-1.5-4.4c-1.1-1.3-1.2-11.9-.2-19.1,1.5-11.4,2.2-14.2,3.4-14.9.5-.4,2-3.6,3.3-7.1,2.8-7.7,10.9-20,17-25.9,2.8-2.7,3.6-3.9,2.3-3.5-1.6.5-1.7.4-.5-.4a2.05,2.05,0,0,1,2.9.1c1.2,1,1.3.9.7-.1a2.72,2.72,0,0,1,.4-2.7c1-1.2,1-1.5-.2-1.5a5.69,5.69,0,0,0-2.8,1.2c-1.2,1.1-1.2,1-.2-.3.6-.9,3.1-2.1,5.4-2.8,3-1,3.8-1.5,2.7-2.2-2.1-1.3-.1-1.1,2.4.3,1.9,1,2,.9.9-.4s-.9-1.8,1.5-2.6c1.5-.6,2.1-1.1,1.3-1.2s-.4-.6,1-1C121.42,25.87,121.32,25.87,123,27.07Zm7.6,1.1a3.86,3.86,0,0,1-2.9.4c-.7-.2-.4-.5.6-.5s1.5-.5,1.2-1.1.1-.7,1.1-.3C132.12,27.27,132.12,27.37,130.62,28.17Zm52.7,1.5c-.3,1.8-.9,3.3-1.3,3.3-.7,0-.5-2.4.6-5.9C183.42,24.67,183.82,26.37,183.32,29.67Zm3.7-.2c0,1.4-.4,2.5-1,2.5s-1-1.1-1-2.5.5-2.5,1-2.5S187,28.07,187,29.47Zm3.4,0c-.4.8-.8,1.5-1,1.5s-.4-.7-.4-1.5.4-1.5,1-1.5S190.72,28.67,190.42,29.47Zm20.1-.5c.3.5-.1,1-1,1s-1.3-.5-1-1,.8-1,1-1S210.22,28.37,210.52,29Zm-32.8,3.2c-.3.8-.6.5-.6-.6s.2-1.7.5-1.3A2,2,0,0,1,177.72,32.17Zm26.7-1.3c.3.4,1.7.7,3.2.5l2.6-.2-2.2,2c-1.5,1.4-4.1,2.3-7.4,2.6-7.2.6-4.8-.9,2.7-1.7.4-.1.7-.9.7-1.9,0-1.4-.2-1.5-1-.2-.5.8-1.2,1.1-1.5.8-.8-.8.3-2.8,1.5-2.8A1.84,1.84,0,0,1,204.42,30.87Zm19.9.8a7.56,7.56,0,0,1-3,0c-1-.3-.4-.5,1.2-.5S224.92,31.37,224.32,31.67Zm20.9,1.7a1.28,1.28,0,0,0,.5,1.5c.4.3,1.9,2,3.3,3.6,1.6,1.9.8,1.4-2.5-1.4-2.7-2.5-5.2-4.6-5.5-4.9s.6-.2,2,0S245.32,32.87,245.22,33.37Zm-124.2,0c0,.2-.7.7-1.6,1s-1.2.2-.9-.4C119.12,33,121,32.57,121,33.37Zm5.5,2.1c-4.6,3.9-7.4,5.1-4,1.8,2.7-2.6,4.8-4,6.5-4.2C129.32,33,128.22,34.07,126.52,35.47Zm38.2-1.9a2,2,0,0,1-1.9.1c-.8-.3-.5-.6.6-.6S165.12,33.27,164.72,33.57ZM115.52,36c-1,1.1-2.2,2-2.8,2s.1-.9,1.4-2C117.22,33.47,117.82,33.47,115.52,36Zm67.5-.9c0,.3,1.1.5,2.5.4s2.3,0,2,.4-1.8.7-3.5.6-3,.2-3,.6-.8.7-1.8.6a1.77,1.77,0,0,1-1.8-1.7c0-1.2.9-1.7,2.8-1.6C181.72,34.47,183,34.77,183,35.07Zm11.7.4a3.66,3.66,0,0,1-2.8,1.3,7.31,7.31,0,0,0-3.3,1.3,3.9,3.9,0,0,1-2,.9c-.6,0,.1-.8,1.7-1.8s2.5-2,2.3-2.3.7-.4,2-.4S194.92,34.87,194.72,35.47Zm13.3,1a4.31,4.31,0,0,1-2.4,1.5c-.6,0-.2-.7.8-1.5C208.92,34.57,209.62,34.57,208,36.47Zm-90.5,1.1c-2.6,2-5.5,3.6-5.5,3s6.3-4.6,7-4.6C119.32,36.07,118.62,36.77,117.52,37.57Zm29.3-.4c-.2.7.9,1.3,2.4,1.3a7.5,7.5,0,0,1,3.5.9c.4.5-.3.5-1.6.1-1.7-.5-2.1-.4-1.6.5.4.7-.7.4-2.5-.5-2.5-1.3-3-1.9-1.9-2.6C146.92,35.77,147,35.77,146.82,37.17Zm70.5-.5a17,17,0,0,1-4.5,0c-1.3-.2-.3-.4,2.2-.4S218.52,36.47,217.32,36.67Zm7,1a5.28,5.28,0,0,1-2.5,0c-.7-.3-.2-.5,1.2-.5S224.92,37.37,224.32,37.67Zm3.7,1.4c0,.6,1.2.9,2.8.6s2.1-.2,1.3.1c-1,.3-.1,1.2,2.5,2.8,2.1,1.3,3.4,2.4,2.8,2.4-1.5,0-6.4-2.4-6.4-3.2,0-.3-1.9-1-4.2-1.4-3.5-.5-3.9-.8-2.3-1.5C227.32,37.77,228,37.77,228,39.07Zm-111,2c-5.6,4.5-8,6-8,5.1,0-.5,2.1-2.4,4.8-4.1C119.22,38.57,120.72,38.07,117,41.07Zm24.8,0a7.88,7.88,0,0,1-3.8.9l-2.5.1,2.5,1.2c2.5,1.1,2.5,1.1-.9,1.5-1.8.2-3.9-.2-4.5-.8-.8-.8-.6-.9.7-.4s1.7.2,1.5-.7.8-1.5,3-1.7c1.8-.2,3-.7,2.7-1.3s.1-.6,1-.2C142.82,40.17,142.92,40.37,141.82,41.07Zm52.9-1.5a2,2,0,0,1-1.9.1c-.8-.3-.5-.6.6-.6S195.12,39.27,194.72,39.57Zm47,0a2,2,0,0,1-1.9.1c-.8-.3-.5-.6.6-.6S242.12,39.27,241.72,39.57ZM209,41c.8.5,1.1,1,.5,1a6.8,6.8,0,0,1-2.5-1c-.8-.5-1-1-.5-1A6.21,6.21,0,0,1,209,41Zm28.5,0a2.14,2.14,0,0,1-1.6,1,1,1,0,0,1-.9-1c0-.6.7-1,1.6-1S237.82,40.37,237.52,41Zm-62.7,3.7c-2.7,4.7-2.8,4.9-2.8,3.7s3.8-7.4,4.5-7.4C176.72,41,176,42.67,174.82,44.67Zm6.1-1.7c-2.3,1.9-2.1,1.9,2.3-.2l4.7-2.2,5.3,3.7c8.6,5.9,9.4,7,11.2,14.7,2,8.9,2,10,.1,12.7a6.35,6.35,0,0,0-1.2,3.5c.2.7.2,1,0,.6-.9-1.6-15.6,11.5-19.8,17.7a28.24,28.24,0,0,0-3.4,7.2c-.8,2.3-1.8,4-2.2,3.7s-1.1.7-1.5,2.1-.9,2.5-1.3,2.5a20.36,20.36,0,0,1-4.3-3.4c-2-1.9-3.9-3.1-4.2-2.8s-.6-.2-.6-1.2-.4-1.5-.9-1.1-1.3-.4-1.6-1.6c-.6-1.7-.9-1.9-1.6-.8s-.9,1.1-.9.1c0-.7-.4-1-1-.7-.9.6-1.4-.8-.7-2,.1-.2-2.7-3.4-6.3-7-4.1-4.2-6.7-6.1-7.1-5.3-1,1.5-2.7-10.7-2.9-20,0-1.5-.4-2.1-1.1-1.6s-1,.2-.8-.5.8-1.1,1.2-.9c1.1.4,3.1-3.1,2.3-3.9-.3-.4-.6-.1-.6.5a1.16,1.16,0,0,1-1.2,1.2c-.9,0-.9-.3.1-1.3a4.17,4.17,0,0,1,1.9-1.2c.4,0,2.6-1.9,5-4.3,5.1-5.1,8.2-5.4,13.8-1.4a32.42,32.42,0,0,0,5.7,3.5c1.4.5,1.6.3.8-1.2-.7-1.3-.6-1.8.4-1.8.8,0,1.2.4.9.9s0,.8.5.8a1,1,0,0,0,1.1-.9c0-1.3,8-10.1,9.2-10.1C182.82,41,182.22,41.87,180.92,43Zm65.1-.9c1.2.8.9.9-1.2.5-1.6-.4-2.8-.1-3,.6s-1.1.9-2.4.3c-1.8-.7-1.7-.8.6-1.5C243.62,40.87,244.32,40.87,246,42.07Zm-44.2,1.5c1.2.4,2.2,1,2.2,1.5,0,1.3-2.3,1-4.4-.6S198.12,42.67,201.82,43.57Zm5.7,2.2c-.3.3-1.1,0-1.8-.7-.9-1-.8-1.1.6-.5C207.32,44.87,207.82,45.47,207.52,45.77ZM149,47c-1.4,1-2.7,1.7-2.9,1.5-.8-.8,2.2-3.5,3.8-3.5C151.12,45,150.92,45.47,149,47Zm-22.3,1.6c-1.6.9-3.1,1.3-3.4,1s.5-1,1.8-1.5C128.82,46.57,129.82,46.87,126.72,48.57Zm137.6,3.1c4.8,6.6,10.5,17.1,8.4,15.4a4.47,4.47,0,0,1-1.7-2.5c0-.6-2.5-4.8-5.5-9.4C259.52,46.27,258.72,44.07,264.32,51.67ZM93,48.37a6.23,6.23,0,0,1-1.7,1.7c-1.6,1.3-1.7,1.2-.4-.4S93,47.57,93,48.37Zm25,0a6,6,0,0,1-1.5,1.6c-1.3,1.1-1.4,1-.9-.4S118,47.27,118,48.37Zm94.5.6c.3.5-.1,1-.9,1s-1.6-.5-1.6-1a.92.92,0,0,1,.9-1A1.9,1.9,0,0,1,212.52,49Zm25,0c.3.5.2,1-.4,1a2.34,2.34,0,0,1-1.6-1c-.3-.6-.2-1,.4-1A2,2,0,0,1,237.52,49ZM129,51c-2,1.3-3.3,1.3-2.5,0a2.78,2.78,0,0,1,2.3-1C130.32,50,130.32,50.17,129,51Zm94.5,0c.3.6-.1.7-.9.4-1.8-.7-2.1-1.4-.7-1.4A1.9,1.9,0,0,1,223.52,51Zm-8.8.6a2,2,0,0,1-1.9.1c-.8-.3-.5-.6.6-.6S215.12,51.27,214.72,51.57Zm-104.3,1.9c-.4.8-1.1,1.5-1.6,1.5s-.5-.6.2-1.5a6,6,0,0,1,1.6-1.5C110.82,52,110.72,52.67,110.42,53.47Zm97.6,5.7c0,2-1.8.5-2.3-1.9-.5-2.6-.4-2.6.9-.8A6.26,6.26,0,0,1,208,59.17Zm-104.1-2.9c-.2.1-1.3.9-2.4,1.7-1.9,1.4-1.9,1.4-.6-.3a4.29,4.29,0,0,1,2.4-1.7Q104.22,56,103.92,56.27ZM248.52,58c.3.5.2,1-.4,1a2.34,2.34,0,0,1-1.6-1c-.3-.6-.2-1,.4-1A2,2,0,0,1,248.52,58Zm-110.4,7.7c-1.2,2.3-2,3.1-2.1,2,0-1.9,3-7.1,3.7-6.3C139.92,61.57,139.22,63.47,138.12,65.67Zm2,1.9c-2.5,3.2-2.7,2.3-.4-1.7,1-1.7,1.9-2.5,2.1-1.9S141.22,66.17,140.12,67.57Zm120.1-3.7c.8-1.1.9-1.1.6-.1-.4,1.6-2.2,1.8-2.4.2-.2-.7-.1-.6.3.1S259.52,64.77,260.22,63.87Zm-160.3,3.3c-.8,1.4-1.4,1.8-1.7,1-.4-1.3,1.7-4.6,2.5-3.8C101,64.57,100.62,65.87,99.92,67.17ZM95,70c-.6,1.1-1.3,2-1.6,2s0-.9.6-2,1.3-2,1.6-2S95.62,68.87,95,70Zm5.1,2.1c-.9,2.1-1,2.2-1.1.4s-.3-1.6-1.1.5l-.8,2.5.2-2.5c.1-1.4.8-2.4,1.5-2.3a.9.9,0,0,0,1.2-.9c0-.6.2-.9.5-.6S100.62,70.77,100.12,72.07Zm122-1.4c1.3,1.6,1.2,1.7-.3.4-1.7-1.3-2.2-2.1-1.4-2.1A6.23,6.23,0,0,1,222.12,70.67ZM273,71c0,.5-.2,1-.4,1s-.8-.5-1.1-1-.1-1,.4-1A1,1,0,0,1,273,71Zm-130.3,4.2c-.3.7-.5.2-.5-1.2s.2-1.9.5-1.3A5.28,5.28,0,0,1,142.72,75.17ZM93,76.47c-.7.8-1.6,1.2-2.1,1s-.1-1.5.9-2.6,1.8-1.5,2-.9A3.36,3.36,0,0,1,93,76.47Zm115,0c0,.5-.5.3-1-.5a6.8,6.8,0,0,1-1-2.5c0-.6.5-.3,1,.5A6.21,6.21,0,0,1,208,76.47Zm46.4-1.9c.3.8.2,1.2-.4.9a1.9,1.9,0,0,1-1-1.6C253,72.47,253.72,72.77,254.42,74.57Zm-12,4.4c-.6.5-2.4-2.1-2.4-3.4,0-.6.6-.1,1.4,1S242.62,78.67,242.42,79Zm-102.4.3c0,.5-.4.5-1,.2a3.11,3.11,0,0,1-1-2.3c0-1.5.2-1.5,1-.2A6.87,6.87,0,0,1,140,79.27Zm83,.2c1.4,1.9,1.4,1.9-.2.6a4.08,4.08,0,0,1-1.8-2.4q0-.9.3-.6C221.42,77.27,222.22,78.37,223,79.47Zm29.7.7c-.3.7-.5.2-.5-1.2s.2-1.9.5-1.3A5.28,5.28,0,0,1,252.72,80.17Zm-48,0c-.3.8-.6.5-.6-.6s.2-1.7.5-1.3A2,2,0,0,1,204.72,80.17Zm-129.4.3c-.3.9-.8,1.4-1,1.1s-.2-.9.2-1.5C75.42,78.47,76,78.77,75.32,80.47Zm15.6,1.7c-.8,1.4-1.4,1.8-1.7,1-.4-1.3,1.7-4.6,2.5-3.8C92,79.57,91.62,80.87,90.92,82.17Zm5.8-1c-.3.8-.6.5-.6-.6s.2-1.7.5-1.3A2,2,0,0,1,96.72,81.17Zm178.2,12.6c.8,5.7-.2,17-2.4,25.9-1.4,5.8-2.3,11.3-2,12.4.4,1.3.2,1.9-.7,1.7s-1.4.8-1.6,2.5c-.3,2.3-.6,2.6-1.7,1.7s-1.6-.6-2.1,1.6a27.76,27.76,0,0,0-.7,5.7c0,2.2-.2,2.5-.9,1.3a3.78,3.78,0,0,1-.3-2.9c.4-.6-1.2.8-3.4,3.2s-3.8,4.8-3.6,5.2c.6.9-5.4,9.1-6.3,8.6-.4-.2-2,.9-3.5,2.5s-2.3,2.8-1.8,2.8.8.7.4,1.6c-.5,1.3-.7,1.3-1.4.2s-.9-1-.9.1c0,.8-.3,1.1-.7.8s-1.2.1-1.9,1.1-1.4,1.2-1.4.5c0-1.1-19.3,6-25.2,9.3-1.6.8-2.8,1.2-2.8.8s-.7,0-1.6.7c-1.2,1-5,1.4-12.7,1.4-10.8.1-11-.2-1.9-2.5,2.3-.6,4-1.5,3.7-1.9-.6-1,5.3-2.4,6.6-1.5.5.3,3-.6,5.6-1.9,11-5.6,18.8-9.9,23.1-12.9,2.5-1.7,4.2-2.6,3.8-2s-.2,1.2.5,1.2c1.2,0,7.4-6.1,14.2-14.1,15.5-18,16-19,16.1-30,.1-5.3.4-7.2,1.1-6.2,1.1,1.5,1.1-.9.1-20.7l-.5-11.5,3.3,6.8C273.22,89.07,274.82,92.87,274.92,93.77ZM279,82a1,1,0,0,1-1,1,1.08,1.08,0,0,1-1-1,1,1,0,0,1,1-1A.94.94,0,0,1,279,82Zm-180.3,3.2c-.3.7-.5.2-.5-1.2s.2-1.9.5-1.3A5.28,5.28,0,0,1,98.72,85.17Zm155.6.8c.3,1.1.1,2-.4,2s-.9-.9-.9-2,.2-2,.4-2S254,84.87,254.32,86ZM91,86a1.1,1.1,0,0,1-1.1,1c-.5,0-.7-.5-.4-1s.8-1,1.1-1S91,85.37,91,86Zm165.4,14.5c.5,1.3.2,1.1-.8-.5a15.54,15.54,0,0,1-1.4-7l.1-4.5.7,5A52.73,52.73,0,0,0,256.42,100.47Zm-166.7-8.3c-.3.8-.6.5-.6-.6s.2-1.7.5-1.3A2,2,0,0,1,89.72,92.17ZM262,102.37c0,.6-.7.2-1.5-.8a8.14,8.14,0,0,1-1.5-3c0-.6.7-.2,1.5.8A8.14,8.14,0,0,1,262,102.37Zm-191.3.3c-.3,1-.5.4-.5-1.2s.2-2.4.5-1.8A7.56,7.56,0,0,1,70.72,102.67Zm197.3,1.6c0,1.8-.2,1.9-1,.7-1.3-2-1.3-4.3,0-3.5C267.62,101.77,268,103.07,268,104.27Zm-7,3.1c0,.6-.7.2-1.5-.8a8.14,8.14,0,0,1-1.5-3c0-.6.7-.2,1.5.8A8.14,8.14,0,0,1,261,107.37Zm-6.3-1.2c-.3.8-.6.5-.6-.6s.2-1.7.5-1.3A2,2,0,0,1,254.72,106.17Zm-184,2c-.3.8-.6.5-.6-.6s.2-1.7.5-1.3A2,2,0,0,1,70.72,108.17Zm49,0c-.3.8-.6.5-.6-.6s.2-1.7.5-1.3A2,2,0,0,1,119.72,108.17Zm57.2,5.2c-.9.8-1,.7-.5-.7a15.5,15.5,0,0,0,.7-3.5c.1-.9.4-.6.6.7A4.06,4.06,0,0,1,176.92,113.37Zm78.4-1.4c-.3,1.2-.8,1.9-1.1,1.6-.5-.6.5-3.6,1.2-3.6C255.62,110,255.62,110.87,255.32,112Zm4.6,3.5v2l-.9-2a11.57,11.57,0,0,1-.9-4v-2l.9,2A11.57,11.57,0,0,1,259.92,115.47Zm-9.4,1.5c-.4,1.8-.3,3,.3,3s1.2-.8,1.4-1.8.4.5.4,3.3-.2,4.2-.4,3.2-.7-1.7-1.2-1.7c-1.2,0-2-4.2-1.3-6.8C250.52,112.87,251.32,113.57,250.52,117Zm14.9-.3c-1,4-1.4,4.1-1.4.5,0-1.8.5-3.2,1-3.2S265.82,115.07,265.42,116.67Zm-165.7,1.5c-.3.7-.5.2-.5-1.2s.2-1.9.5-1.3A5.28,5.28,0,0,1,99.72,118.17Zm155.7,2.2c-.3,1.5-.8,2.5-1.1,2.3a6.18,6.18,0,0,1,.3-3.1c.3-1.5.8-2.5,1.1-2.3A6.18,6.18,0,0,1,255.42,120.37ZM262,118a1.1,1.1,0,0,1-1.1,1c-.5,0-.7-.5-.4-1s.8-1,1.1-1S262,117.37,262,118Zm-189.3,3.2c-.3.7-.5.2-.5-1.2s.2-1.9.5-1.3A5.28,5.28,0,0,1,72.72,121.17Zm15.2,2.3c0,.5-.4.3-.9-.5a6.91,6.91,0,0,1-.9-3C86.12,118.37,87.82,121.57,87.92,123.47Zm176.1-.4c0,1.1-.4,1.7-1,1.4s-.8.7-.5,2.7c.5,2.9.4,3-.5,1-1.1-2.5-.4-7.2,1.1-7.2C263.62,121,264,121.87,264,123.07Zm-160.3,3.6c-.3,1-.5.4-.5-1.2s.2-2.4.5-1.8A7.56,7.56,0,0,1,103.72,126.67Zm145.4,0c-1.2,2-1.4,1.4-.5-1.2.4-.9.9-1.4,1.1-1.1S249.72,125.67,249.12,126.67Zm11,3.7c-.2,1.1.2,1.6.8,1.2s.8-.1.4,1c-.8,2.2-1.8.3-2.7-5.1-.5-3.5-.4-3.7.6-1.5A10.81,10.81,0,0,1,260.12,130.37Zm-181,6.1a16.21,16.21,0,0,1,1.2,4c.5,2.6.4,2.4-1.2-1a30.7,30.7,0,0,1-2.4-8.5l-.6-4.5,1.2,4.5A49.68,49.68,0,0,0,79.12,136.47Zm169.9-4.4a1.89,1.89,0,0,1-1,1.4c-.6.4-.7-.1-.3-1.1s.2-1.5-.3-1.1-1.1-.4-1.1-1.6c-.2-2.1-.1-2.2,1.3-.3A7.56,7.56,0,0,1,249,132.07Zm27.2-.3c-.3,1.7-.7,2-1.3,1-1.3-1.9-1.1-3.5.4-3.5C276.22,129.27,276.52,130.17,276.22,131.77Zm-170.6,1.8c.3,3.4-.9,2.1-1.4-1.4-.2-1.5,0-2.3.4-2A8.07,8.07,0,0,1,105.62,133.57Zm150.1-1.4c-.3.8-.6.5-.6-.6s.2-1.7.5-1.3A2,2,0,0,1,255.72,132.17Zm-145,1c-.3.8-.6.5-.6-.6s.2-1.7.5-1.3A2,2,0,0,1,110.72,133.17Zm146.8,1.5a11.64,11.64,0,0,1-2.6,4.9c-1,1.1-1.7,2.3-1.3,2.6s.1.9-.4,1.2c-1.5.9-.9-1.7.9-4.5a20.39,20.39,0,0,0,2.3-4.7C257.42,131,258.42,131.47,257.52,134.67Zm-13.9.3c0,1.2-.4,1.6-.9,1.1a1.84,1.84,0,0,1-.3-2C243.42,132.57,243.62,132.67,243.62,135Zm-130.7,3.8c0,2.4-.1,2.5-.9.7-1.2-2.8-1.2-4.7,0-4C112.62,135.77,113,137.27,112.92,138.77Zm7.9.6a5.08,5.08,0,0,1,.2,3.6c-.6,1-1.3.2-2.4-2.5-1.9-4.6-1.9-4.6-.2-3.9A6.26,6.26,0,0,1,120.82,139.37Zm-14.9,1.1c.3,1.7.2,1.7-1.3.3-1.9-2-2.1-3.1-.3-2.6A3.7,3.7,0,0,1,105.92,140.47Zm138.2.8c-.8.8-1.1.7-1.1-.4,0-2,1.3-3.4,1.8-1.9A2.33,2.33,0,0,1,244.12,141.27Zm25.9-.2c0-.8.2-1.2.5-.9s.1,1.6-.4,2.9-1,1.9-1,1.2a30.13,30.13,0,0,0-.7-3c-.5-1.5-.4-1.5.5-.3S270,142.27,270,141.07Zm-182.1,5.4v2l-.9-2a11.57,11.57,0,0,1-.9-4v-2l.9,2A11.57,11.57,0,0,1,87.92,146.47Zm39-.6c0,1.4-.1,1.4-.6.1-.3-.8-1-2.4-1.5-3.5-.9-2-.9-2,.6-.1A6.08,6.08,0,0,1,126.92,145.87Zm120.4-3.4c-.3.9-.8,1.4-1,1.1s-.2-.9.2-1.5C247.42,140.47,248,140.77,247.32,142.47Zm-15,2.6c-1.4,2.4-1.9,2.7-2.2,1.3a3.48,3.48,0,0,1,1.5-3.1C234.22,141.37,234.32,141.67,232.32,145.07Zm4.5.9c0,2.2-.2,4-.6,4-.6,0-.8-3.5-.3-7C236.22,140.47,236.82,142.37,236.82,146ZM91,156c.4,0,1.1.8,1.4,1.7.6,1.4.3,1.4-1.5-.3-2.3-2-7.9-11.2-7.9-12.9,0-.6,1.6,1.8,3.6,5.2S90.52,156,91,156Zm42.3-6.2a12.58,12.58,0,0,1,0,4.1c-.6.7-2-1.2-2.8-3.8-.6-1.8-.4-2.2.6-1.6s1.2.5.2-.6c-1.7-1.7-1.6-3,.1-2.3C132.22,145.87,133,147.77,133.32,149.77Zm110.8-2.1c-1.2,2-1.4,1.4-.5-1.2.4-.9.9-1.4,1.1-1.1S244.72,146.67,244.12,147.67Zm23.2-1.4a3.51,3.51,0,0,1-.4,2.8c-.6,1-.9.7-.9-1.4C266,144.77,266.52,144.17,267.32,146.27Zm-152.6,2.9c-.3.8-.6.5-.6-.6s.2-1.7.5-1.3A2,2,0,0,1,114.72,149.17Zm7.5.3c.4,2,.3,2.3-.8,1.4-1.6-1.3-1.9-3.9-.5-3.9C121.42,147,122,148.07,122.22,149.47Zm104.1,0c-1,1.3-2.2,2.5-2.7,2.5s.1-1.1,1.4-2.5C228,146.27,228.62,146.27,226.32,149.47Zm-111.8,4.7c3.3,3.5,4.7,5.1,3,3.7s-4-3.5-5.3-4.5c-2.1-1.7-4.8-5.4-4-5.4C108.42,148,111.22,150.77,114.52,154.17Zm2.2-2c-.3.7-.5.2-.5-1.2s.2-1.9.5-1.3A5.28,5.28,0,0,1,116.72,152.17Zm64.8-1.2a.72.72,0,0,1-.7,1.1c-.7.1-2.3.3-3.5.4s-2-.1-1.7-.6,1.1-.6,1.9-.2,1.5,0,1.5-.6C179,149.67,180.72,149.67,181.52,151Zm52.2,1.2c-.3.8-.6.5-.6-.6s.2-1.7.5-1.3A2,2,0,0,1,233.72,152.17Zm4.2,1.9c-2.8,2.1-3.5,1.8-2-1,.7-1.3,1.7-1.8,2.7-1.4C240,152.17,239.92,152.57,237.92,154.07ZM193,153c0,.5-.7,1-1.5,1s-1.5-.5-1.5-1,.7-1,1.5-1S193,152.37,193,153Zm68.6,2c.7-1.4,1.3-2,1.4-1.3s-1.2,2.5-2.6,4c-1.8,1.9-2.4,2.2-2,1a19.32,19.32,0,0,0,.7-4.5c.2-2.6.2-2.6.6.3l.5,3ZM124,157.87c-.1,1.3-.4,1.2-1.5-.3a7.84,7.84,0,0,1-1.5-3.5c.1-1.3.4-1.2,1.5.3A7.84,7.84,0,0,1,124,157.87Zm62.6-3.4c1,.8,1.4,1.5.8,1.5a8.14,8.14,0,0,1-3-1.5c-1-.8-1.4-1.5-.8-1.5A8.14,8.14,0,0,1,186.62,154.47Zm-12.6-.1a6.23,6.23,0,0,1-1.7,1.7c-1.6,1.3-1.7,1.2-.4-.4S174,153.57,174,154.37Zm67,0a6.23,6.23,0,0,1-1.7,1.7c-1.6,1.3-1.7,1.2-.4-.4S241,153.57,241,154.37Zm-72,1a6.23,6.23,0,0,1-1.7,1.7c-1.6,1.3-1.7,1.2-.4-.4S169,154.57,169,155.37Zm12.5.7c1.1,1.6.1,1.9-1.3.3-.7-.8-.8-1.4-.3-1.4A2.17,2.17,0,0,1,181.52,156.07Zm9.5.9c-1.5,1-1.5,2.1.2,3.2,1,.8,1,.9-.2.5-.8-.2-1.6-1.6-1.8-3-.3-2.2,0-2.6,1.3-2.1S191.82,156.47,191,157Zm14,1c-2,1.3-3.3,1.3-2.5,0a2.78,2.78,0,0,1,2.3-1C206.32,157,206.32,157.17,205,158Zm-77,2.8c0,1.5-.2,1.5-1,.2-1.3-2-1.3-3.3,0-2.5A2.78,2.78,0,0,1,128,160.77Zm-30.6-.2c.3.8.2,1.2-.4.9a1.9,1.9,0,0,1-1-1.6C96,158.47,96.72,158.77,97.42,160.57Zm85.6,1c0,.8-.4,1.4-.9,1.4s-.9-.9-.8-1.9C181.42,158.87,183,159.27,183,161.57Zm3-.6c0,1.1-.2,2-.4,2s-.6-.9-.9-2-.1-2,.4-2S186,159.87,186,161Zm15-1.6a6,6,0,0,1-1.5,1.6c-1.2,1-1.5,1-1.5-.4a1.56,1.56,0,0,1,1.5-1.6C200.32,159,201,159.17,201,159.37Zm4.4,1.4a5.43,5.43,0,0,0-1.7,2.2c-.4,1-.6.8-.6-.7a2.65,2.65,0,0,1,1.2-2.6C205.92,159.07,206.72,159.87,205.42,160.77Zm50.2,2c-1.7,1.6-1.8,1.6-.5-.5.7-1.2,1.5-2,1.8-1.7S256.62,161.77,255.62,162.77Zm-125.2-.2c.3.8.2,1.2-.4.9a1.9,1.9,0,0,1-1-1.6C129,160.47,129.72,160.77,130.42,162.57Zm35.3.6c.2,1.8,0,2-.7.8-1.2-1.8-1.3-3-.2-3C165.22,161,165.72,162,165.72,163.17Zm28,1c-.3.7-.5.2-.5-1.2s.2-1.9.5-1.3A5.28,5.28,0,0,1,193.72,164.17Zm55.4,1.1c-.8.8-1.1.7-1.1-.4,0-2,1.3-3.4,1.8-1.9A2.33,2.33,0,0,1,249.12,165.27Zm-145,2.5c6.1,6.4,7,8.1,2.6,4.8-3.8-2.9-9.4-9.6-8-9.6C99.22,163,101.62,165.17,104.12,167.77Zm30.4-1.9c-.6.5-2.5-1-2.5-2,0-.5.6-.4,1.4.3S134.62,165.67,134.52,165.87Zm64.2-.7c-.3.8-.6.5-.6-.6s.2-1.7.5-1.3A2,2,0,0,1,198.72,165.17Zm17.8-1.2a2.53,2.53,0,0,1-1.8,1c-.7,0-.6-.4.3-1C216.92,162.77,217.32,162.77,216.52,164ZM106,166c.6,1.1.8,2,.6,2s-1-.9-1.6-2-.8-2-.6-2S105.42,164.87,106,166Zm147-.6a6.23,6.23,0,0,1-1.7,1.7c-1.6,1.3-1.7,1.2-.4-.4S253,164.57,253,165.37Zm-114.7,3.9c-.5.8-.8.7-1.1-.1s-.8-1-1.3-.6c-1,.6-1.2-.9-.2-1.9S139.12,168.07,138.32,169.27Zm71.9-.1c-.8.8-.9.4-.5-1.3.4-1.3.8-1.8,1.1-1A2.72,2.72,0,0,1,210.22,169.17Zm-99.9,1c.6,2.2.5,2.2-.8.4-1.7-2.2-2-4-.6-3.2A5.57,5.57,0,0,1,110.32,170.17Zm81.5.3c.1,1.4-.3,2.5-.8,2.5-1.1,0-1.4-3.3-.3-4.3C191.62,167.77,191.52,167.67,191.82,170.47Zm56.5-1c-.3.9-.8,1.4-1,1.1s-.2-.9.2-1.5C248.42,167.47,249,167.77,248.32,169.47Zm-95.8,3.5c.3.5.1,1-.4,1a1.1,1.1,0,0,1-1.1-1c0-.6.2-1,.4-1S152.22,172.37,152.52,173Zm-33,1.1c1.1,1.7-.1,2.1-1.5.4-.8-.9-.8-1.5-.2-1.5A2.17,2.17,0,0,1,119.52,174.07Zm-5.4,2.6c1.3,1.5,1.2,1.5-.8.4-2.4-1.2-2.9-2.1-1.4-2.1A3.82,3.82,0,0,1,114.12,176.67Zm55.4-.7c.3.6-.1.7-.9.4-1.8-.7-2.1-1.4-.7-1.4A1.9,1.9,0,0,1,169.52,176Zm22.5.5c0,.9-.9,1.5-2.2,1.5-2.2-.1-2.3-.1-.4-1.5C191.92,174.57,192,174.57,192,176.47Zm3-1.1c0,.3-.4.8-1,1.1s-1,.1-1-.4a1.1,1.1,0,0,1,1-1.1C194.62,175,195,175.17,195,175.37Zm-18,1c0,.3-.4.8-1,1.1s-1,.1-1-.4a1.1,1.1,0,0,1,1-1.1C176.62,176,177,176.17,177,176.37Zm9.7,2.8c-.3.8-.6.5-.6-.6s.2-1.7.5-1.3A2,2,0,0,1,186.72,179.17Zm-2.4,2.8a2.75,2.75,0,0,1-2.4,2c-2.4,0-2.5-1.6-.1-2.9C184.32,179.57,184.92,179.77,184.32,182Zm-60.8,0c.3.6-.1.7-.9.4-1.8-.7-2.1-1.4-.7-1.4A1.9,1.9,0,0,1,123.52,182Zm8.7,2.4c2,.9,4,2.1,4.3,2.6a1.1,1.1,0,0,0,1.5.5,1.1,1.1,0,0,1,1.5.5c1.1,1.7-2.1,1.1-8.4-1.6-3.4-1.5-6.1-3.3-6.1-4,0-1,.5-1.2,1.8-.5C127.72,182.37,130.22,183.57,132.22,184.37Zm12.3-2.4c.3.6-.1.7-.9.4-1.8-.7-2.1-1.4-.7-1.4A1.9,1.9,0,0,1,144.52,182Zm81,2a2.53,2.53,0,0,1-1.8,1c-.7,0-.6-.4.3-1C225.92,182.77,226.32,182.77,225.52,184ZM147,185c0,.5-.2,1-.4,1s-.8-.5-1.1-1-.1-1,.4-1A1,1,0,0,1,147,185Zm-1.9,5.8c-1.3.4-4.1-1.6-4.1-2.9,0-.5,1.2-.2,2.6.8S145.72,190.57,145.12,190.77Zm9.3,2.1c-.2.2-1.1,0-2.1-.4a5.93,5.93,0,0,0-3-.6,2.28,2.28,0,0,1-1.9-1c-.5-.9-.2-1,1.2-.5s1.7.5.7-.5c-2.8-2.8-1.1-2.9,2-.2C153.22,191.17,154.62,192.67,154.42,192.87Zm6-4.1c.3.5-.1.9-.9.9s-1.2-.4-.9-.9.7-.8.9-.8S160.12,188.37,160.42,188.77Zm40,2.7c-.6,1.6-2.4,2.1-2.4.7a2.36,2.36,0,0,1,2.1-2.2C200.62,190,200.72,190.67,200.42,191.47Zm-21.7.1a2,2,0,0,1-1.9.1c-.8-.3-.5-.6.6-.6S179.12,191.27,178.72,191.57Zm17.3.9a6.5,6.5,0,0,1-4.3,1.5c-3.6,0-3.3-.7.5-1.2a7.81,7.81,0,0,0,3.4-1.1C197,190.37,197.22,191,196,192.47Z"/><path class="cls-1" d="M237,28.37c0,.2.7.7,1.6,1s1.2.2.9-.4C238.92,28,237,27.57,237,28.37Z"/><path class="cls-1" d="M222,61a10.94,10.94,0,0,0,3.3,2c.5,0,.6.4.2.9s.2,1.4,1,1.8,1.8,2.7,2.2,4.9c.4,3.1.3,3.7-.7,2.8a6.47,6.47,0,0,1-1.3-3.6c-.1-1.4-.7-2.5-1.3-2.5s-.3,2.1.8,5.6c2.2,6.6,3.6,19.7,2.1,18.8-.6-.4-1.1-.1-1,.6.1,3.4-.4,4.8-1.5,4.1-.7-.4-.8-.3-.4.5.4.6-.1,3.5-1.2,6.4s-1.6,6-1.2,7.1c.6,1.8.7,1.8,1.3-.5a22.76,22.76,0,0,0,.7-5.4c0-2.2.3-2.6.9-1.5s1.3.2,2.2-3.3c1.4-5.7,2.2-6.4,3.9-3.2,1.1,2,1,3.2-.3,7.1-1.2,3.6-1.3,5.2-.4,7.2,1.1,2.3,1.2,2.1,2.3-2.8s1.1-7.3,0-21.9c-.3-3.8-.1-4.9.6-3.8a3.6,3.6,0,0,1,.3,2.8c-.4.5-.1,1.6.5,2.4a2.9,2.9,0,0,1,.7,2.3c-.3.4-.1,1.4.4,2.2,1.1,1.7.7-9-.4-10.7a17.93,17.93,0,0,1-1.2-4.9c-.5-4.4-4.5-13.1-6-13.3a1.08,1.08,0,0,1-1-1c0-1.6-1.4-2.4-4.7-2.8l-3.3-.3Z"/><path class="cls-1" d="M131.22,77.47c0,1.6.2,2.2.5,1.2a7.56,7.56,0,0,0,0-3C131.42,75.07,131.22,75.77,131.22,77.47Z"/><path class="cls-1" d="M132.72,80.57a6.21,6.21,0,0,0-.7,3.3c0,2.1.2,2.3,1,1.1s1-.8,1,1.5a6.62,6.62,0,0,0,2,4.8,5.59,5.59,0,0,1,2,3.4,13,13,0,0,0,1.5,4.3c1.4,2.5,1.4,2.5.9-1a43.94,43.94,0,0,0-2.8-8.5c-1.3-2.8-2.7-6-3.2-7.3S133.12,80.17,132.72,80.57Z"/><path class="cls-1" d="M222.12,86.47a6.73,6.73,0,0,0,1.4,2.9c.8,1.1,1.5,1.5,1.5,1a7.47,7.47,0,0,0-1.5-3C222.72,86.37,222.12,85.87,222.12,86.47Z"/><path class="cls-1" d="M209.52,91c-.3.5-.2,1,.4,1a2.34,2.34,0,0,0,1.6-1c.3-.6.2-1-.4-1A2,2,0,0,0,209.52,91Z"/><path class="cls-1" d="M207,95.37a2.53,2.53,0,0,1-1.5,2,2.53,2.53,0,0,0-1.5,2.1c0,.9-.4,1.3-1,1s-1,.2-1,1.2c0,1.4.7,1,3-1.6,2.7-3,3.9-6.1,2.5-6.1C207.22,94,207,94.57,207,95.37Z"/><path class="cls-1" d="M142,99.17c1,3.3,3.2,5.5,3.9,3.7.2-.6,1.2.4,2.3,2.2,1.5,2.5,2.2,2.9,2.8,1.8s1-1.1,1.5.2c.3.9,2,2.6,3.6,3.8l3,2.2-2.3-3.5c-1.2-1.9-2.5-3.3-2.7-3.1s-1.2-.6-2.2-1.8c-1.8-2-1.9-2.1-1.3-.2.4,1.5,0,1.3-1.6-.8-1.2-1.5-2.6-2.5-3.1-2.1s-.9-.3-.9-1.3c0-1.5-.2-1.6-1-.3s-1,1.1-1-.7a4,4,0,0,0-.9-2.8C141.52,96.17,141.52,97.17,142,99.17Z"/><path class="cls-1" d="M242.22,98.67a20.4,20.4,0,0,1-1,4.7c-.6,2.2-.8,4.4-.5,4.9s.1.7-.5.3-1.3.6-1.8,2.8c-.9,4.8.1,6.8,1.5,3.1.7-1.7,1.8-4.2,2.6-5.8a12.52,12.52,0,0,0,1-5.7c-.3-2.2-.1-2.9.8-2.3.7.4.7,0-.2-1C242.72,97.87,241.92,97.47,242.22,98.67Z"/><path class="cls-1" d="M200.22,104c0,1.4.2,1.9.5,1.2a5.28,5.28,0,0,0,0-2.5C200.42,102.07,200.22,102.57,200.22,104Z"/><path class="cls-1" d="M197.12,105.87a3.56,3.56,0,0,0-.9,3.2c.4,2.4.5,2.4,1.6-.5C199.22,105.37,199,104.67,197.12,105.87Z"/><path class="cls-1" d="M82.12,107.57c0,1.1.3,1.4.6.6a2,2,0,0,0-.1-1.9C82.32,105.87,82,106.47,82.12,107.57Z"/><path class="cls-1" d="M193.62,110.47a9.46,9.46,0,0,0-.5,3.3c0,.9.5.4,1-1.2C195,109.37,194.72,107.77,193.62,110.47Z"/><path class="cls-1" d="M226.92,113.17c-1.4,3.3-4.2,6.9-9.1,11.8-1.6,1.5-2.8,3-2.8,3.4,0,1.7,6.3-3.2,8.3-6.4a27.47,27.47,0,0,1,4.4-5.3,6.18,6.18,0,0,0,2.3-4.3C230,109,228.52,109.37,226.92,113.17Z"/><path class="cls-1" d="M220.12,113.57c-1.2,2.7-1.1,2.8.4,1.2,1-.9,1.6-2.1,1.3-2.8S220.82,112.07,220.12,113.57Z"/><path class="cls-1" d="M160,112.37a5.73,5.73,0,0,0,1.8,1.7c1.5,1.3,1.6,1.2.3-.4S160,111.57,160,112.37Z"/><path class="cls-1" d="M190.52,113.87c-.3,1.2-1.1,1.9-1.6,1.6s-.9.3-.9,1.4.4,2.1.9,2.1c1.1,0,3.6-5.9,2.8-6.6C191.42,112.07,190.92,112.77,190.52,113.87Z"/><path class="cls-1" d="M236.12,115.17c0,1-.5,1.8-1.1,1.8s-1.7,1.5-2.5,3.2-1.3,2.4-1,1.3c.3-1.4-.4-1-2.5,1.5-1.7,1.9-3,4.3-3,5.3s-.4,1.6-1,1.2-1.8.3-2.9,1.4-2.2,1.7-2.5,1.3-.6.5-.6,1.7c0,1.9.2,2,1.4.9.8-.7,2.7-2.3,4.3-3.5,8.3-6.5,12.7-12.1,12-15.6C236.42,114.27,236.22,114.07,236.12,115.17Zm-6.9,11c-.7.7-1.2.8-1.2.2a2.41,2.41,0,0,1,.7-1.7.84.84,0,0,1,1.2-.2C230.12,124.77,229.82,125.57,229.22,126.17Z"/><path class="cls-1" d="M116,116.17a8,8,0,0,0,2,3.9l2.1,2.4-1.7-3.5C116.32,114.67,116,114.27,116,116.17Z"/><path class="cls-1" d="M184.62,120.47a7.9,7.9,0,0,0-.5,2.8c0,.7.5.1,1-1.2s.8-2.6.5-2.8S185,119.57,184.62,120.47Z"/><path class="cls-1" d="M121.32,122.67c0,2,1.5,4.3,2.7,4.3.5,0,.2-1.4-.6-3C121.62,120.47,121.32,120.37,121.32,122.67Z"/><path class="cls-1" d="M182.12,124.57c0,1.1.3,1.4.6.6a2,2,0,0,0-.1-1.9C182.32,122.87,182,123.47,182.12,124.57Z"/><path class="cls-1" d="M135.52,125.17c-.5,1.2.2,2.5,2.2,4.2a14.37,14.37,0,0,0,3.6,2.7c.4.1,1,.2,1.5.3a10.49,10.49,0,0,1,2,.9c.7.5,1.2.4,1.2-.3s-1-1.4-2.2-1.9c-2.9-1.1-6.3-4.1-7-6.1C136.32,123.67,136.12,123.77,135.52,125.17Z"/><path class="cls-1" d="M197,124.87c0,.5-1.1,1.9-2.5,3.2-3.5,3.4-3.1,4.2,1,2.1,2.4-1.2,3.5-2.4,3.5-4,0-1.2-.4-2.2-1-2.2A1,1,0,0,0,197,124.87Z"/><path class="cls-1" d="M151,134a1.1,1.1,0,0,0,1.1,1c.5,0,.7-.5.4-1s-.8-1-1.1-1S151,133.37,151,134Z"/><path class="cls-1" d="M199.82,136c-3.9,2.1-6.5,4.9-3.4,3.7a10.9,10.9,0,0,1,3.5-.7,7.32,7.32,0,0,0,3.7-1.6c1.8-1.5,1.8-1.5,0-1-1.6.6-1.7.4-.6-.9C204.62,133.57,204.32,133.57,199.82,136Z"/><path class="cls-1" d="M216,136.47c0,.8.2,1.5.4,1.5s.6-.7,1-1.5.1-1.5-.4-1.5S216,135.67,216,136.47Z"/><path class="cls-1" d="M193,137.47c-.7.8-.8,1.5-.2,1.5a4.29,4.29,0,0,0,2.2-1.5c.7-.8.8-1.5.2-1.5A4.29,4.29,0,0,0,193,137.47Z"/><path class="cls-1" d="M212.32,137.37a8.29,8.29,0,0,1-2.5,1.9c-.7.2-1,.7-.7,1.1,1,1,5.9-1.5,5.9-3.1S213.82,135.67,212.32,137.37Z"/><path class="cls-1" d="M150.12,141.57c0,.5,1.3,1.9,3,3.2,2.2,1.8,3.6,2.2,5.9,1.7,1.7-.4,3-1.1,3-1.6,0-1.6-4.3-2.7-6.2-1.6-1.3.9-2.2.7-3.7-.7C150.92,141.47,150,141.07,150.12,141.57Z"/><path class="cls-1" d="M153.52,142a2.34,2.34,0,0,0,1.6,1c.6,0,.7-.5.4-1a2,2,0,0,0-1.6-1C153.32,141,153.22,141.37,153.52,142Z"/><path class="cls-1" d="M199,147.87l-2.5.7,2.9.8c1.5.4,3.1.5,3.4.1s-.1-.5-.9-.6-.3-.5,1.1-.9c2-.6,2.1-.8.5-.8A19.8,19.8,0,0,0,199,147.87Z"/><path class="cls-1" d="M124.62,174.27c.3,1,.9,1.5,1.2,1.2s0-1.1-.7-1.8C124.12,172.77,124,172.87,124.62,174.27Z"/><path class="cls-1" d="M167,59a35.93,35.93,0,0,0,3.5,2.1c1.6.8,1.5.6-.4-1-1.3-1.2-2.8-2.1-3.5-2.1S166.22,58.47,167,59Z"/><path class="cls-1" d="M168.52,63.37c.9,1.4,1.4,2.9,1.1,3.4s.1,1.5.9,2.2c1.2,1,1.5.9,1.5-.8a3.58,3.58,0,0,0-1-2.7,1.1,1.1,0,0,1-.5-1.5c.3-.5-.4-1.4-1.5-2C166.92,60.87,166.92,60.87,168.52,63.37Z"/><path class="cls-1" d="M266,42.17c2.3,3.2,4.4,5.8,4.7,5.8,1,0-3.4-6.3-6.1-8.8C262.42,37.07,262.72,37.77,266,42.17Z"/><path class="cls-1" d="M64.52,83.17a109.84,109.84,0,0,0-2,18.3l-.4,11,1-10.9c.5-6.1,1.6-14.1,2.4-18C67.52,74.27,66.62,73.87,64.52,83.17Z"/><path class="cls-1" d="M285.22,76.47a48.73,48.73,0,0,0,1.3,7.5c.9,4.8,1.3,5.6,1.3,3C287.82,84,285.32,73.77,285.22,76.47Z"/><path class="cls-1" d="M288.12,92.57c0,1.1.3,1.4.6.6a2,2,0,0,0-.1-1.9C288.32,90.87,288,91.47,288.12,92.57Z"/><path class="cls-1" d="M247.72,179.37c-6.4,4.5-7.1,5.4-1.9,2.6a30.35,30.35,0,0,0,5.9-4.2C253.92,175.27,253.22,175.57,247.72,179.37Z"/><path class="cls-1" d="M102.92,180.37c1.7,2.1,8.1,6,8.7,5.3.3-.2-1.9-1.9-4.8-3.7S102.12,179.47,102.92,180.37Z"/><path class="cls-1" d="M207.72,196.87c-6.5,1.9-11.4,3.7-10.9,3.9,1,.3,17-4.3,21.4-6.2C223.42,192.27,220.42,193,207.72,196.87Z"/></g></g></svg>