<svg xmlns="http://www.w3.org/2000/svg" version="1.0" width="500.000000pt" height="500.000000pt" viewBox="0 0 500.000000 500.000000" preserveAspectRatio="xMidYMid meet">

<g transform="translate(0.000000,500.000000) scale(0.100000,-0.100000)" fill="#7b7b7b" stroke="none">
<path d="M2713 3820 c-298 -30 -531 -191 -660 -454 -48 -100 -58 -168 -25 -184 39 -21 343 57 576 147 163 64 437 153 605 198 57 15 110 33 117 41 8 7 14 27 14 42 0 24 -11 38 -52 71 -144 113 -344 162 -575 139z"/>
<path d="M3230 3454 c-176 -40 -277 -72 -500 -159 -233 -90 -360 -131 -515 -165 -150 -32 -170 -64 -89 -143 121 -120 350 -180 599 -158 139 13 209 31 311 81 94 46 205 142 265 232 88 129 134 261 110 314 -14 31 -42 31 -181 -2z"/>
<path d="M1424 2915 c-100 -22 -164 -61 -164 -99 0 -52 254 -258 550 -446 192 -122 292 -195 404 -294 94 -84 119 -100 146 -91 28 9 40 36 47 109 23 249 -224 636 -490 766 -136 66 -338 89 -493 55z"/>
<path d="M1176 2678 c-23 -32 -21 -157 4 -252 22 -86 81 -207 141 -287 59 -80 174 -194 240 -238 117 -78 295 -132 438 -131 138 1 303 52 309 96 6 43 -223 237 -455 386 -155 99 -398 274 -540 390 -78 64 -112 72 -137 36z"/>
<path d="M3415 2619 c-129 -17 -254 -79 -386 -192 -179 -153 -280 -332 -310 -550 -21 -151 19 -371 80 -439 34 -39 42 -35 116 57 96 120 171 236 265 409 87 161 260 442 354 575 46 65 58 109 34 128 -20 16 -87 21 -153 12z"/>
<path d="M3620 2464 c-98 -123 -221 -317 -320 -503 -116 -220 -152 -278 -261 -426 -49 -65 -89 -129 -89 -140 0 -39 22 -56 80 -61 233 -23 594 219 730 491 89 178 102 376 39 582 -22 69 -70 133 -100 133 -11 0 -42 -30 -79 -76z"/>
</g>
</svg>